<svg xmlns="http://www.w3.org/2000/svg" width="324" height="345" viewBox="0 0 324 345" fill="none"><path d="M303.271 303.813V297.183C303.271 291.9 299.257 288.065 293.732 288.065H262.968C261.287 288.065 259.743 288.42 258.413 289.063C257.241 288.483 255.745 288.065 253.881 288.065H245.167C240.833 288.065 237.249 290.503 235.865 294.375C234.504 290.527 230.903 288.065 226.557 288.065H217.841C215.976 288.065 214.485 288.483 213.311 289.063C211.979 288.42 210.44 288.065 208.764 288.065H200.703C198.437 288.065 196.424 288.711 194.84 289.835C193.255 288.711 191.245 288.065 188.98 288.065H180.776C177.404 288.065 174.549 289.569 172.867 291.952C171.181 289.569 168.321 288.065 164.957 288.065H156.748C151.219 288.065 147.209 291.9 147.209 297.183V335.083C147.209 340.279 151.309 344.2 156.748 344.2H164.957C168.321 344.2 171.181 342.696 172.867 340.313C174.549 342.696 177.404 344.2 180.776 344.2H188.98C191.227 344.2 193.245 343.531 194.84 342.379C196.436 343.531 198.455 344.2 200.703 344.2H208.764C214.199 344.2 218.301 340.279 218.301 335.083V332.829L219.587 337.395C220.805 341.529 224.52 344.2 229.048 344.2H242.673C247.213 344.2 250.928 341.52 252.159 337.307L253.423 332.82V335.083C253.423 340.279 257.524 344.2 262.968 344.2H293.732C299.257 344.2 303.271 340.367 303.271 335.083V328.447C303.271 324.236 300.727 320.947 296.893 319.785C296.896 319.672 296.901 319.561 296.901 319.451V312.813C296.901 312.693 296.896 312.576 296.893 312.459C300.683 311.268 303.271 307.945 303.271 303.813ZM46.4787 219.333L132.903 269.203C138.112 272.204 144.771 273.852 151.649 273.852C158.545 273.852 165.211 272.196 170.405 269.193L256.797 219.333C267.492 213.16 275.56 199.195 275.56 186.847V87.04C275.56 74.696 267.496 60.7333 256.804 54.5587L170.38 4.65863C165.171 1.65598 158.513 -3.05176e-05 151.633 -3.05176e-05C144.748 -3.05176e-05 138.087 1.65732 132.873 4.668L46.4867 54.5587C35.7933 60.7333 27.7307 74.696 27.7307 87.0373L27.7187 186.847C27.7187 199.195 35.7827 213.16 46.4787 219.333ZM130.557 288.065H99.7867C97.56 288.065 95.5573 288.724 93.968 289.86C92.3787 288.721 90.3547 288.065 88.0707 288.065H79.8693C76.5 288.065 73.6413 289.569 71.9573 291.952C70.272 289.569 67.4133 288.065 64.044 288.065H55.84C54.2227 288.065 52.74 288.396 51.444 288.988C50.1493 288.396 48.6613 288.065 47.0453 288.065H9.54C4.104 288.065 0 291.988 0 297.183V303.813C0 309.013 4.104 312.935 9.54 312.935H14.6573V335.083C14.6573 340.279 18.756 344.2 24.1907 344.2H32.3987C37.8387 344.2 41.9387 340.279 41.9387 335.083V312.935H46.3V335.083C46.3 340.279 50.4 344.2 55.84 344.2H64.044C67.4133 344.2 70.272 342.696 71.9573 340.313C73.6413 342.696 76.5 344.2 79.8693 344.2H88.0707C90.3173 344.2 92.3373 343.531 93.9307 342.381C95.5267 343.531 97.5427 344.2 99.7867 344.2H130.557C136.087 344.2 140.103 340.367 140.103 335.083V328.447C140.103 324.233 137.553 320.947 133.719 319.785C133.724 319.672 133.724 319.561 133.724 319.451V312.813C133.724 312.693 133.724 312.579 133.719 312.461C137.509 311.271 140.103 307.947 140.103 303.813V297.183C140.103 291.9 136.087 288.065 130.557 288.065Z" fill="white"></path><path d="M169.81 18.6746C159.812 12.9066 143.462 12.9066 133.464 18.6746L57.8123 62.3572C47.815 68.1279 39.6377 82.2906 39.6377 93.8332L39.635 181.232C39.635 192.769 47.8123 206.928 57.8017 212.705L133.476 256.364C143.464 262.136 159.826 262.132 169.819 256.364L245.476 212.705C255.47 206.935 263.648 192.769 263.648 181.232V93.8332C263.648 82.2906 255.47 68.1279 245.476 62.3572L169.81 18.6746Z" fill="white"></path><path d="M190.168 151.279C190.168 161.949 172.923 170.6 151.636 170.6C130.359 170.6 113.11 161.949 113.11 151.279C113.11 140.612 130.359 131.964 151.636 131.964C172.923 131.964 190.168 140.612 190.168 151.279Z" fill="#A2D7DD"></path><path d="M112.961 93.114V153.727H116.702C116.619 153.349 116.553 152.967 116.553 152.578C116.553 145.055 132.229 138.955 151.565 138.955C170.901 138.955 186.575 145.055 186.575 152.578C186.575 152.967 186.507 153.349 186.422 153.727H190.169V93.114H112.961Z" fill="#49BDC7"></path><path d="M68.7837 87.2742L106.45 109.261C110.605 111.687 113.602 114.346 115.212 116.911L119.224 113.454C124.49 108.527 136.985 105.059 151.564 105.059C166.14 105.059 178.64 108.527 183.908 113.454L188.018 116.997C189.61 114.406 192.625 111.718 196.826 109.261L234.493 87.2742C238.522 84.9208 241.312 83.9902 242.93 84.4195C242.832 84.3488 242.737 84.2688 242.622 84.2035L154.074 33.0768C152.73 32.2968 150.521 32.2968 149.173 33.0768L60.6557 84.2035C60.5357 84.2688 60.445 84.3488 60.3477 84.4195C61.9597 83.9902 64.7543 84.9142 68.7837 87.2742Z" fill="#A2D7DD"></path><path d="M151.633 18.6654C148.023 18.6654 144.587 19.4521 142.211 20.8281L55.8185 70.7174C50.7985 73.6107 46.3918 81.2414 46.3918 87.0401L46.3825 186.847C46.3825 192.647 50.7838 200.267 55.8052 203.163L142.224 253.029C144.601 254.407 148.039 255.188 151.649 255.188C155.26 255.188 158.704 254.407 161.084 253.029L247.471 203.163C252.492 200.269 256.893 192.64 256.893 186.847V87.0401C256.893 81.2414 252.495 73.6107 247.471 70.7174L161.053 20.8281C158.68 19.4521 155.247 18.6654 151.633 18.6654ZM151.649 266.511C146.031 266.511 140.674 265.205 136.566 262.837L50.1492 212.972C41.6892 208.089 35.0625 196.613 35.0625 186.847L35.0745 87.0401C35.0745 77.2721 41.6998 65.8001 50.1572 60.9147L136.547 11.0254C140.653 8.65341 146.011 7.34274 151.633 7.34274C157.249 7.34274 162.61 8.65341 166.717 11.0214L253.133 60.9147C261.591 65.8001 268.216 77.2721 268.216 87.0401V186.847C268.216 196.613 261.591 208.089 253.129 212.972L166.737 262.832C162.632 265.205 157.272 266.511 151.649 266.511Z" fill="#00A5B5"></path><path d="M114.699 182.841V223.169L119.223 219.269C124.49 214.342 136.986 210.874 151.564 210.874C166.139 210.874 178.639 214.342 183.908 219.269L188.424 223.169V182.841H114.699Z" fill="#49BDC7"></path><path d="M22.0011 307.363C22.0011 306.187 21.2624 305.592 19.7957 305.592H9.53975C8.15308 305.592 7.34375 304.939 7.34375 303.813V297.183C7.34375 295.996 8.15308 295.409 9.53975 295.409H47.0451C48.5117 295.409 49.2464 295.996 49.2464 297.183V303.813C49.2464 304.939 48.5117 305.592 47.0451 305.592H36.7944C35.3997 305.592 34.5957 306.187 34.5957 307.363V335.083C34.5957 336.205 33.8624 336.856 32.3984 336.856H24.1904C22.8037 336.856 22.0011 336.205 22.0011 335.083V307.363Z" fill="#00A5B5"></path><path d="M64.0433 295.41C65.4353 295.41 66.242 296.063 66.242 297.183V311.98C66.242 313.114 67.0446 313.763 68.438 313.763H75.474C76.9366 313.763 77.6686 313.114 77.6686 311.98V297.183C77.6686 296.063 78.4713 295.41 79.87 295.41H88.0713C89.5353 295.41 90.2713 295.995 90.2713 297.183V335.083C90.2713 336.206 89.5353 336.856 88.0713 336.856H79.87C78.4713 336.856 77.6686 336.206 77.6686 335.083V325.724C77.6686 324.534 76.9366 323.942 75.474 323.942H68.438C67.0446 323.942 66.242 324.534 66.242 325.724V335.083C66.242 336.206 65.5113 336.856 64.0433 336.856H55.8393C54.4486 336.856 53.6433 336.206 53.6433 335.083V297.183C53.6433 295.995 54.3753 295.41 55.8393 295.41H64.0433Z" fill="#00A5B5"></path><path d="M130.557 295.41C132.02 295.41 132.758 295.995 132.758 297.183V303.814C132.758 304.938 132.02 305.592 130.557 305.592H112.832C111.441 305.592 110.633 306.187 110.633 307.363V309.26C110.633 310.388 111.441 311.035 112.832 311.035H124.187C125.652 311.035 126.381 311.628 126.381 312.814V319.45C126.381 320.571 125.652 321.216 124.187 321.216H112.832C111.441 321.216 110.633 321.814 110.633 322.994V324.896C110.633 326.015 111.441 326.67 112.832 326.67H130.557C132.02 326.67 132.758 327.266 132.758 328.446V335.083C132.758 336.262 132.02 336.856 130.557 336.856H99.7865C98.3998 336.856 97.5972 336.206 97.5972 335.083V297.183C97.5972 295.995 98.3998 295.41 99.7865 295.41H130.557Z" fill="#00A5B5"></path><path d="M164.957 295.41C166.34 295.41 167.152 296.063 167.152 297.183V311.98C167.152 313.114 167.957 313.763 169.345 313.763H176.372C177.841 313.763 178.582 313.114 178.582 311.98V297.183C178.582 296.063 179.385 295.41 180.776 295.41H188.98C190.442 295.41 191.181 295.995 191.181 297.183V335.083C191.181 336.206 190.442 336.856 188.98 336.856H180.776C179.385 336.856 178.582 336.206 178.582 335.083V325.724C178.582 324.534 177.841 323.942 176.372 323.942H169.345C167.957 323.942 167.152 324.534 167.152 325.724V335.083C167.152 336.206 166.42 336.856 164.957 336.856H156.749C155.35 336.856 154.552 336.206 154.552 335.083V297.183C154.552 295.995 155.28 295.41 156.749 295.41H164.957Z" fill="#E75414"></path><path d="M208.763 295.41C210.226 295.41 210.958 295.995 210.958 297.183V335.083C210.958 336.206 210.226 336.856 208.763 336.856H200.702C199.309 336.856 198.509 336.206 198.509 335.083V297.183C198.509 295.995 199.309 295.41 200.702 295.41H208.763Z" fill="#E75414"></path><path d="M226.558 295.41C227.88 295.41 228.683 295.94 228.982 296.943L235.422 319.683C235.568 320.22 236.155 320.22 236.3 319.683L242.744 296.943C243.039 295.94 243.846 295.41 245.167 295.41H253.88C255.424 295.41 256.155 296.118 255.79 297.36L245.09 335.316C244.796 336.323 243.994 336.856 242.674 336.856H229.048C227.731 336.856 226.926 336.323 226.63 335.316L215.935 297.36C215.568 296.118 216.307 295.41 217.84 295.41H226.558Z" fill="#E75414"></path><path d="M293.732 295.41C295.195 295.41 295.927 295.995 295.927 297.183V303.814C295.927 304.938 295.195 305.592 293.732 305.592H276.004C274.612 305.592 273.81 306.187 273.81 307.363V309.26C273.81 310.388 274.612 311.035 276.004 311.035H287.356C288.818 311.035 289.558 311.628 289.558 312.814V319.45C289.558 320.571 288.818 321.216 287.356 321.216H276.004C274.612 321.216 273.81 321.814 273.81 322.994V324.896C273.81 326.015 274.612 326.67 276.004 326.67H293.732C295.195 326.67 295.927 327.266 295.927 328.446V335.083C295.927 336.262 295.195 336.856 293.732 336.856H262.968C261.571 336.856 260.767 336.206 260.767 335.083V297.183C260.767 295.995 261.571 295.41 262.968 295.41H293.732Z" fill="#E75414"></path><path d="M320.419 303.867H320.471C321.906 303.867 323.067 302.703 323.067 301.268C323.067 301.035 322.679 295.257 322.679 295.257C322.599 293.889 321.46 292.811 320.083 292.811H308.403C306.968 292.811 305.807 293.975 305.807 295.412V296.907C305.807 297.897 306.362 298.759 307.174 299.2V301.268C307.174 302.703 308.346 303.867 309.78 303.867H320.419Z" fill="white"></path><path d="M313.083 296.907H311.695V301.268H309.78V296.907H308.403V295.412H313.083V296.907Z" fill="#00A5B5"></path><path d="M320.419 301.268H318.534L318.468 297.916L317.703 301.268H316.055L315.28 297.916L315.224 301.268H313.338L313.679 295.412H316.135L316.875 298.594L317.622 295.412H320.083L320.419 301.268Z" fill="#00A5B5"></path><path d="M151.638 166.196L149.62 166.891V199.567L151.638 200.512C164.124 200.512 175.067 197.449 181.362 192.805C183.782 191.297 186.723 189.813 186.723 193.657V220.4C186.723 224.041 190.098 224.185 196.827 220.257L234.492 198.267C240.884 194.536 244.582 190.267 244.582 186.628V87.1401C244.582 83.2961 241.224 83.3387 234.492 87.2747L196.827 109.261C190.432 112.997 186.723 117.281 186.723 120.921V152.579C186.723 160.055 170.81 166.123 151.638 166.196Z" fill="#E75414"></path><path d="M151.636 166.196V200.512C139.152 200.512 128.209 197.449 121.916 192.805C119.498 191.297 116.553 189.813 116.553 193.657V220.4C116.553 224.041 113.181 224.185 106.449 220.257L68.7838 198.267C62.3891 194.536 58.6931 190.267 58.6931 186.628V87.1401C58.6931 83.2961 62.0531 83.3387 68.7838 87.2747L106.449 109.261C112.841 112.997 116.553 117.281 116.553 120.921V152.579C116.553 160.055 132.464 166.123 151.636 166.196Z" fill="#F48956"></path></svg>